<svg width="512" height="512" viewBox="0 0 512 512" fill="none" xmlns="http://www.w3.org/2000/svg">
  <path d="M136.5 60.9999C124.5 74.4999 82.5 105.5 74 113.5C51 132.5 39.8333 190.5 38.5 216V265C42 298 67.37 362.023 95 387.5C133.5 423 207.5 459.769 240.5 466C312 479.5 365.477 448.53 415.5 424C467.5 398.5 471.216 360.733 477 350.5C483.5 339 488.5 310.5 489.5 291.5C491.16 259.968 502.5 232 496.5 164.5C491.7 110.5 466.5 68.4999 455.5 55.4999C444 39.4999 420 21.5 363 15C286.134 6.2345 305.509 13.8589 251.5 15C180.5 16.5 151.448 44.1832 136.5 60.9999Z" fill="#3CBC60" />
  <path d="M370.033 91C366.194 94.1136 291.033 83.5 279.033 86C267.033 88.5 266.127 98.769 266.033 100C265.533 106.5 270.87 111.5 276.533 114.5C282.195 117.5 367.533 119 370.533 121.5C373.533 124 369.442 181.162 369.033 187.5C368.623 193.838 379.533 200 383.533 200C387.533 200 398.533 200 399.033 188.5C399.533 177 400.033 121.5 401.033 121C402.033 120.5 408.033 121.5 411.033 122.5C414.033 123.5 421.533 125.5 445.533 125.5C469.533 125.5 468.533 127 486.533 127.5C492.033 127.5 498.126 121.442 498.533 114.5C497.783 103.749 493.734 101.185 484.533 98.5C484.533 98.5 403.533 93.5 401.033 91.5C398.533 89.5 395.033 24.5 393.533 20C392.033 15.5 384.532 10 378.033 10C371.533 10 366.033 14.5 364.033 20.5C362.032 26.5 371.912 85.0349 370.033 91Z" fill="#FF3B00" />
  <path fill-rule="evenodd" clip-rule="evenodd" d="M182.512 185.205C183.699 183.821 184.668 182.69 186 182.5C187.444 182.294 188.817 182.378 190.206 182.464C192.183 182.585 194.196 182.709 196.5 182C197.34 181.742 198.589 181.195 200.142 180.515C204.808 178.473 212.217 175.23 219.5 175C218.897 175.05 220.839 174.972 224.278 174.835L224.278 174.835L224.278 174.835C235.896 174.372 264.599 173.228 270 174C277 175 310 179.714 323.5 183.5C329.895 185.293 333.934 187.183 338.487 189.313C343.545 191.679 349.237 194.342 359.5 197.5C369.955 200.717 383.403 208.841 392 217C394.516 219.388 396.507 221.834 398.286 224.02C401.724 228.244 404.374 231.5 408.5 231.5C422 231.5 429 227.5 428 218C427.958 217.605 427.932 217.187 427.904 216.749V216.748C427.781 214.795 427.634 212.45 426 210C420.251 201.377 407.923 190.378 400.5 185C400.5 185 379.945 173.039 366 167C344.632 157.747 331.871 153.875 309 149.5C295.936 147.001 288.192 146.354 275.678 145.308C274.498 145.21 273.274 145.108 272 145C250.006 143.142 227.5 143.5 215 145C208.658 145.761 204.504 147.423 200.71 148.941C197.025 150.415 193.68 151.754 189 152C179.5 152.5 167.5 157.5 164.5 159.5C161.5 161.5 156.968 168.38 157.5 175C158.187 183.537 163.5 192 172.5 191C178.076 190.38 180.581 187.458 182.512 185.205ZM178 230C183 224 207 216.5 232.5 214.5C258 212.5 309.5 217.5 320.5 219.5C331.5 221.5 360.5 229.5 371 241C381.5 252.5 388 260.5 387.5 268.5C387 276.5 378.5 283 371 283.5C365.943 283.837 360.205 276.446 355.01 269.756C352.5 266.523 350.117 263.454 348 261.5C341.5 255.5 310 248 290 246C287.447 245.745 284.707 245.44 281.817 245.12C262.064 242.927 235.309 239.957 213.5 246.5C207.915 248.175 203.231 249.85 199.234 251.278C185.339 256.245 179.749 258.243 173.5 247C170.5 240.5 173 236 178 230ZM216.211 318.702C221.024 317.235 225.697 315.81 229.071 315.315C235.5 314.5 259.941 313.739 292.571 314.315C298 314.5 309.571 317.815 312.571 321.315C313.68 322.265 314.355 323.307 315.135 324.512C316.818 327.11 318.992 330.467 327.071 335.315C334.571 339.815 348.571 329.315 346.071 319.315C343.95 310.102 341.461 305.775 335.071 299.315C326.654 291.781 305.071 285.765 295.571 284.815C286.071 283.865 245.5 284 232 285.5C218.895 286.498 212.567 288.36 204.121 290.847C202.532 291.315 200.869 291.804 199.071 292.315C192.115 294.516 188 301 186.5 303.5C184.5 309.5 186 321 198.429 322.685C202.544 322.868 209.513 320.744 216.211 318.702Z" fill="black" />
</svg>